<?xml version="1.0" encoding="UTF-8"?>
<svg width="5061px" height="800px" viewBox="0 0 5061 800" version="1.1" xmlns="http://www.w3.org/2000/svg" xmlns:xlink="http://www.w3.org/1999/xlink">
    <title>dovu-logo-white</title>
    <g id="dovu-logo-white" stroke="none" stroke-width="1" fill="none" fill-rule="evenodd">
        <g id="Group" transform="translate(1204.000000, 0.000000)" fill="#FFFFFF">
            <path d="M3355.19861,0.358064034 L3355.19861,7.0530102 C3355.19861,166.883472 3354.62362,326.725318 3355.4548,486.55578 C3355.84191,560.222964 3389.6753,616.868131 3454.19955,651.487152 C3484.89534,667.955378 3515.60711,675.915588 3545.84774,675.608302 L3552.81775,675.390738 C3587.62379,673.570214 3621.75265,660.767302 3654.45588,637.351479 C3705.08925,601.098571 3729.73418,549.594166 3729.96191,487.665911 C3730.55968,327.664662 3730.16115,167.669103 3730.16115,7.66785348 L3730.16115,7.66785348 L3730.16115,0.574397433 L3855.27011,0.574397433 L3855.27011,5.97703647 C3855.27011,168.55721 3856.03868,331.131687 3854.91715,493.69478 C3854.37064,571.711399 3826.09928,640.283364 3773.54738,698.061434 C3721.98603,754.780611 3657.72366,788.784792 3581.51171,797.597528 C3571.57235,798.747118 3561.75661,799.483219 3552.06653,799.80632 L3542.41837,799.99593 C3462.36754,800.390325 3391.08953,772.119864 3329.76236,715.464881 C3276.88596,666.602018 3245.26145,605.783896 3233.98934,534.684247 C3231.60967,519.637697 3230.36291,504.266645 3230.33445,489.049305 C3230.07825,328.558459 3230.17504,168.073306 3230.17504,7.59953696 L3230.17504,0.358064034 L3355.19861,0.358064034 Z M2316.53687,0.0331225504 C2317.25429,0.0331225504 2317.91488,0.058510842 2318.52608,0.123015764 C2318.77836,0.148287005 2319.02679,0.181905153 2319.26709,0.222570192 C2319.62509,0.284333018 2319.95888,0.358849405 2320.27687,0.449880016 C2320.46308,0.502880466 2320.64275,0.561606347 2320.81746,0.626231889 C2321.16766,0.755697409 2321.49556,0.907555371 2321.80633,1.08514829 C2321.95595,1.17105657 2322.10673,1.26586125 2322.25359,1.36732415 C2322.5301,1.55881518 2322.78051,1.7631107 2323.02025,1.99064836 C2323.17271,2.13454004 2323.33091,2.29911672 2323.48477,2.47486549 C2323.71502,2.74015455 2323.92683,3.01698024 2324.13156,3.31861346 C2324.59571,3.99978973 2325.01785,4.79841775 2325.42362,5.73793268 L2324.57434,4.02824534 C2324.58812,4.0521978 2324.60187,4.0762816 2324.61562,4.10049675 L2325.42362,5.73793268 C2393.27258,162.534034 2461.25246,319.267512 2529.23237,476.006686 L2527.05834,470.988417 C2527.78302,472.659273 2528.50768,474.330132 2529.23237,476.000993 C2529.91036,477.593384 2530.6233,479.171796 2531.49989,481.146958 L2532.27242,482.878113 L2532.27242,482.878113 C2533.28576,480.982351 2533.99739,479.843754 2534.53252,478.619764 L2553.55325,434.714658 L2694.88674,108.928919 C2702.47264,91.4372315 2710.05997,73.9469678 2717.64372,56.4552835 L2740.37937,3.97310857 C2741.3984,1.61621425 2742.39466,0.062030267 2745.53151,0.0791073856 L2744.09935,0.195519136 C2744.52004,0.109677867 2744.99199,0.0657802103 2745.52583,0.0677235333 L2745.6119,0.0793298626 C2788.67293,0.192967352 2831.80864,0.153117168 2874.94436,0.1645037 C2875.86662,0.1645037 2876.78891,0.3637573 2878.38294,0.551627048 C2791.97629,200.063593 2705.65929,399.373815 2619.10293,599.222023 L2532.45458,799.271265 C2416.90982,532.407053 2301.87746,266.69852 2186.46364,0.147423901 L2186.46364,0.147423901 L2192.43556,0.147423901 L2192.43556,0.147423901 L2254.4841,0.168039208 L2254.4841,0.168039208 L2316.53687,0.0331225504 L2316.53687,0.0331225504 Z M316.273597,0.2726704 C413.640663,0.7793443 499.530679,33.3375075 573.084002,96.9679637 C641.707204,156.340068 686.220629,230.815656 703.100319,320.013292 C728.30884,453.177827 695.386329,571.318585 604.190455,671.85664 C547.471278,734.376966 476.570883,773.464978 393.903095,790.908275 C368.962145,796.174281 343.708078,798.901219 318.214904,798.912606 C214.221208,798.969536 110.244592,798.941072 6.26797263,798.941072 C4.17864842,798.941072 2.08932421,799.037852 0,799.089089 L0,0.352370768 C2.08932421,0.284056933 4.17864842,0.1645037 6.26797263,0.1645037 C109.601285,0.153117168 212.934594,-0.262469832 316.273597,0.2726704 Z M1775.14002,197.631265 C1787.72168,197.929827 1798.78453,201.101526 1808.05284,207.065876 C1817.16136,212.930192 1824.53677,221.486049 1829.91219,232.654489 L1829.06662,230.96571 C1829.35179,231.523682 1829.63176,232.088508 1829.90648,232.660183 C1848.68764,271.685572 1860.13054,312.999539 1864.87279,356.049867 C1865.83571,364.804047 1866.44543,373.599122 1866.93142,381.510939 L1867.27254,387.27018 C1867.49271,390.976659 1867.6965,394.404298 1867.91284,397.437844 C1866.28466,505.741128 1831.99581,596.481563 1761.02142,672.18114 C1696.30359,741.185772 1616.30582,781.492082 1522.40578,793.310713 C1446.47279,802.869228 1373.60831,791.227082 1304.01731,759.363463 C1294.60557,755.052639 1286.81589,748.670999 1280.92977,740.995964 L1278.52657,737.63211 C1276.23995,734.19135 1274.31016,730.533215 1272.75935,726.719043 L1271.33286,722.853087 C1266.58224,708.512071 1267.02877,692.348405 1273.7648,677.378832 C1278.33225,667.233504 1285.34042,658.874454 1293.79014,652.706714 C1304.41965,644.948988 1317.31607,640.663052 1330.50749,640.639078 L1334.6941,640.776201 C1341.68233,641.244885 1348.69385,642.927382 1355.43632,645.942189 C1368.28048,651.673354 1381.33929,656.629608 1394.68669,660.600718 C1406.68953,664.171213 1418.92291,666.94092 1431.44332,668.765352 C1444.50757,670.6725 1457.41242,671.715228 1470.14407,671.882054 L1479.65673,671.843653 C1521.65543,670.936349 1561.71093,660.332523 1599.3073,639.621444 C1604.16172,636.950045 1608.96524,634.112595 1613.72689,631.106277 C1620.40114,626.894018 1626.81572,622.520703 1632.97096,617.987686 C1638.154,614.171163 1643.14748,610.245956 1647.95768,606.208615 C1700.50907,562.095496 1731.18918,504.58951 1740.24649,434.74651 C1741.18084,427.516649 1741.88625,420.148688 1742.35981,412.64949 C1745.13798,368.614279 1735.71611,326.645618 1717.56689,286.549948 C1698.44416,244.302331 1729.10656,196.560985 1775.14002,197.631265 L1775.14002,197.631265 Z M131.809604,125.859846 L125.627028,125.859846 L125.627028,673.222957 L131.718517,673.222957 C193.675236,673.222957 255.631958,673.365281 317.588677,673.092017 C329.765965,673.035087 342.057111,672.04451 354.092076,670.211369 C417.358181,660.595922 471.111314,632.301804 513.802984,584.731248 C577.046317,514.286295 598.987069,431.971471 579.522765,339.318194 C568.290511,285.878175 541.687209,240.425409 502.5138,202.555694 C451.191572,152.94136 389.553657,126.998443 318.163668,126.030636 C256.058932,125.199459 193.925729,125.859846 131.809604,125.859846 Z M1431.67673,2.71495836 C1502.53727,-3.71241769 1570.4944,8.57873052 1635.17806,38.3473299 C1644.59498,42.684146 1652.39566,49.1207777 1658.28959,56.8469073 L1660.7062,60.241965 C1672.15912,77.5504302 1674.66285,100.250092 1665.36224,120.36612 C1662.83654,125.83039 1659.63654,130.765527 1655.90855,135.115022 L1653.00651,138.268845 C1649.57104,141.767019 1645.76998,144.818302 1641.69715,147.386456 C1641.04722,147.795009 1640.39643,148.188635 1639.73924,148.570057 L1636.05773,150.549017 C1629.83095,153.630905 1623.12214,155.664559 1616.21667,156.539791 L1612.05013,156.922401 L1612.05013,156.922401 L1607.85392,157.026975 C1599.43331,156.94401 1590.89383,155.129445 1582.72861,151.392869 C1582.71081,151.384734 1582.69301,151.376602 1582.67522,151.368472 C1549.53853,136.21538 1514.77149,126.554389 1478.3421,126.207119 L1468.90841,126.242804 C1362.68024,127.934717 1282.02076,175.595848 1228.63654,269.351448 C1206.06387,308.974601 1196.18654,352.577149 1196.28902,398.092537 C1196.31424,408.330499 1196.92938,418.453186 1198.11285,428.459592 C1201.46717,456.842052 1209.40113,484.283736 1221.41784,510.779417 C1239.16855,549.941437 1216.02089,592.707117 1173.57402,599.538694 L1169.20348,600.063573 L1169.20348,600.063573 L1164.83077,600.241687 C1152.6347,600.276985 1140.59837,596.397311 1130.44777,589.545084 C1121.20362,583.309749 1113.51986,574.598679 1108.70819,564.128349 C1104.24014,554.408078 1100.1673,544.598255 1096.49498,534.697553 C1080.67241,492.04633 1072.28984,447.716912 1071.74935,401.599415 L1071.74935,401.599415 L1071.74935,377.836909 C1077.27723,280.190886 1112.31184,194.363494 1180.54792,123.024741 C1248.98325,51.4582682 1333.21661,11.6472483 1431.67673,2.71495836 Z" id="Shape"></path>
        </g>
        <g id="Group" fill="#FFFFFF">
            <path d="M679.38695,396.653163 C679.175348,392.134293 679.099192,384.848264 678.481443,377.604536 C675.09652,337.247852 663.790895,299.252148 644.014515,263.828973 C636.626928,250.593946 622.004082,245.846598 609.513732,252.811068 C596.981072,259.792462 593.223819,274.601476 600.526779,287.895744 C626.599109,335.369221 635.949946,386.041443 625.955975,439.201584 C610.681534,520.380379 564.604338,578.15247 488.917567,611.493913 C451.793476,627.85153 412.604586,632.632726 372.366375,627.809221 C342.342153,624.212742 314.010384,614.946532 287.616487,600.061353 C281.929823,596.837221 275.9216,595.644033 269.557955,597.065699 C258.963159,599.443604 251.626351,607.575868 249.959274,618.526078 C248.520685,627.970004 253.911167,638.370161 263.355085,643.532165 C327.617757,678.616841 395.578449,688.560033 466.712503,671.102318 C592.2168,640.308025 679.437682,528.309551 679.38695,396.653163 L679.38695,396.653163 Z M414.974029,527.708726 C414.957105,524.789237 415.380223,523.528355 418.765138,522.961377 C447.477707,518.120948 471.646021,504.725138 489.26452,481.563835 C520.202672,440.894045 522.614425,396.822408 500.637847,351.574515 C486.353493,322.142656 468.701146,294.547109 449.373262,268.077047 C433.277979,246.015843 416.99652,224.090037 400.232709,201.351852 C398.193303,204.245955 396.881641,205.997649 395.696924,207.808586 C377.012173,236.055728 358.158186,264.192858 339.727299,292.600784 C327.093097,312.097905 314.47581,331.645814 302.90786,351.794532 C290.002854,374.245006 283.706911,398.684115 287.54033,424.68028 C293.793963,467.03407 316.650623,497.464487 355.729501,515.074524 C365.139571,519.314128 375.488965,521.438169 385.999134,524.738466 L385.999134,528.648041 C385.999134,544.667167 385.889122,560.660907 386.109146,576.680033 C386.142994,579.582598 387.065386,582.755959 388.529361,585.269262 C391.702722,590.786672 398.311769,593.029188 404.413089,591.336726 C410.582103,589.62734 414.880948,584.473806 414.940181,577.932454 C415.084041,561.185567 415.067118,544.438689 414.974029,527.708726 L414.974029,527.708726 Z M174.001715,360.595324 C185.696602,295.114078 219.918128,243.705641 275.490021,207.266994 C321.87186,176.828124 373.263381,165.734054 428.268297,172.14847 C460.128841,175.871885 489.907654,186.22127 517.528586,202.629658 C523.325262,206.065353 529.561971,206.970812 536.018705,205.481452 C546.385014,203.086623 553.315637,195.098219 555.033476,184.088767 C556.49746,174.788709 551.606252,165.006293 542.416198,159.598887 C498.606895,133.729649 451.150342,121.036206 396.263893,120.486161 C390.15412,120.875423 379.990903,121.391621 369.84461,122.246318 C364.487975,122.703282 359.173658,123.659522 353.876264,124.564981 C286.516388,136.014474 230.089806,167.553443 186.796701,220.121221 C124.040322,296.307266 106.235654,382.995019 131.986416,478.322771 C138.163893,501.145584 147.954771,522.555192 160.157402,542.822384 C165.175538,551.123901 172.757757,555.287348 182.362458,554.965781 C192.356429,554.644214 199.837097,549.668388 204.042862,540.562953 C208.011678,531.982186 206.573089,523.790689 201.859588,515.624569 C174.018639,467.313328 164.185452,415.447918 174.001715,360.595324 L174.001715,360.595324 Z M800,399.995769 C800,620.912445 620.912445,800 399.995769,800 C179.079093,800 0,620.912445 0,399.995769 C0,179.079093 179.079093,0 399.995769,0 C620.912445,0 800,179.079093 800,399.995769 L800,399.995769 Z M481.995406,433.024107 C489.298367,406.943315 484.813353,381.954153 471.612173,358.208957 C455.059926,328.455522 436.823678,299.827579 416.725724,272.350507 C416.387233,271.902004 415.786408,271.622755 415.168668,271.174252 L415.168668,493.791852 C416.725724,493.580289 417.741204,493.563365 418.697443,493.317963 C451.074186,485.058763 472.957674,465.240066 481.995406,433.024107 L481.995406,433.024107 Z M385.804503,275.185377 C376.055934,290.121328 366.967431,304.033344 358.428973,317.107588 C367.77981,326.610746 376.800619,335.750021 385.804503,344.897765 L385.804503,275.185377 Z M383.375819,468.100322 C369.006845,452.267365 354.451695,436.58673 339.921938,420.889179 C332.534351,412.909229 325.129847,404.954672 317.293757,396.517765 C308.289872,448.907835 348.925814,489.696099 385.999134,493.317963 C385.999134,487.05586 386.210689,480.802227 385.889122,474.565518 C385.753724,472.348396 384.848264,469.72508 383.375819,468.100322 L383.375819,468.100322 Z M385.999134,427.836718 C366.290449,406.511736 347.453377,386.117608 328.294738,365.401905 C332.618977,358.031249 336.909361,350.711365 341.428223,343.036058 C342.951439,344.457724 344.085386,345.49859 345.168561,346.581765 C357.929699,359.325979 370.741616,372.027885 383.358895,384.915959 C384.780561,386.36301 385.838351,388.842466 385.889122,390.848025 C386.109146,402.737551 385.999134,414.627076 385.999134,427.836718 L385.999134,427.836718 Z" id="Shape"></path>
        </g>
    </g>
</svg>