<?xml version="1.0" encoding="UTF-8"?>
<svg width="800px" height="800px" viewBox="0 0 800 800" version="1.1" xmlns="http://www.w3.org/2000/svg" xmlns:xlink="http://www.w3.org/1999/xlink">
    <title>app-icon-black</title>
    <g id="app-icon-black" stroke="none" stroke-width="1" fill="none" fill-rule="evenodd">
        <g id="Group">
            <path d="M800,399.995769 C800,620.912445 620.912445,800 399.995769,800 C179.079093,800 0,620.912445 0,399.995769 C0,179.079093 179.079093,0 399.995769,0 C620.912445,0 800,179.079093 800,399.995769 L800,399.995769 Z" id="Background" fill="#FFFFFF"></path>
            <path d="M659.282162,397.399992 C659.086167,393.214389 659.015626,386.465704 658.443437,379.756202 C655.308151,342.375822 644.836316,307.182303 626.518445,274.371586 C619.675692,262.112643 606.131281,257.715411 594.562094,264.166252 C582.953718,270.632768 579.473562,284.349617 586.237929,296.663433 C610.387425,340.635741 619.048638,387.570887 609.791722,436.810467 C595.643771,512.002326 552.964768,565.513725 482.859896,596.396237 C448.473707,611.54748 412.174997,615.976062 374.904355,611.508291 C347.094419,608.177053 320.852118,599.594225 296.404771,585.806828 C291.137498,582.820476 285.572382,581.715286 279.678055,583.032104 C269.864626,585.234638 263.068907,592.767148 261.524778,602.90978 C260.192284,611.657216 265.185218,621.290361 273.932647,626.071668 C333.455947,658.568849 396.404539,667.778731 462.292456,651.608522 C578.540811,623.085308 659.329153,519.346721 659.282162,397.399992 L659.282162,397.399992 Z M414.369694,518.790207 C414.354019,516.086031 414.745931,514.918138 417.881209,514.392976 C444.476226,509.909529 466.862127,497.501659 483.181261,476.048502 C511.837725,438.37811 514.071611,397.556756 493.715806,355.645895 C480.484923,328.384635 464.134437,302.82426 446.231984,278.306365 C431.323728,257.872175 416.243026,237.563397 400.715547,216.502152 C398.826547,219.182815 397.61162,220.805323 396.514276,222.482702 C379.207525,248.646618 361.744019,274.708634 344.672411,301.021476 C332.969981,319.080685 321.283219,337.186936 310.568405,355.849685 C298.615143,376.644437 292.783527,399.281162 296.334231,423.36011 C302.126658,462.590307 323.297639,490.776481 359.49445,507.087778 C368.210528,511.014711 377.796654,512.982104 387.531698,516.039004 L387.531698,519.660248 C387.531698,534.497963 387.429799,549.312165 387.633597,564.149881 C387.664948,566.838381 388.519313,569.777707 389.87532,572.105654 C392.814646,577.216155 398.936276,579.293285 404.587623,577.725642 C410.301673,576.142324 414.283479,571.368863 414.338343,565.309935 C414.471593,549.798131 414.455918,534.286335 414.369694,518.790207 L414.369694,518.790207 Z M191.169089,364.001419 C202.001478,303.349415 233.699166,255.73235 285.172632,221.981053 C328.13381,193.78705 375.735207,183.511167 426.68351,189.45252 C456.194339,192.901333 483.776964,202.487451 509.360852,217.68572 C514.730024,220.868033 520.506776,221.706715 526.487326,220.327194 C536.08912,218.108984 542.508609,210.709725 544.099757,200.51222 C545.455772,191.898042 540.92529,182.837079 532.413003,177.828469 C491.834636,153.867088 447.878005,142.109786 397.039431,141.600306 C391.380253,141.96086 381.966574,142.438989 372.56857,143.230652 C367.606987,143.653915 362.6846,144.539632 357.777889,145.378314 C295.385804,155.983407 243.120683,185.196377 203.020444,233.887281 C144.892348,304.454605 128.400774,384.749136 152.252418,473.046467 C157.974306,494.186097 167.043107,514.016746 178.345794,532.789233 C182.993842,540.478513 190.016872,544.334907 198.913226,544.037055 C208.170142,543.739204 215.099111,539.130344 218.994701,530.696435 C222.670817,522.748499 221.338323,515.161125 216.972443,507.597257 C191.184765,462.84897 182.076774,414.808634 191.169089,364.001419 L191.169089,364.001419 Z M771,400.496081 C771,605.120153 605.120153,771 400.496081,771 C195.87201,771 30,605.120153 30,400.496081 C30,195.87201 195.87201,30 400.496081,30 C605.120153,30 771,195.87201 771,400.496081 L771,400.496081 Z M476.448245,431.088579 C483.212612,406.931246 479.058368,383.785034 466.830775,361.791046 C451.499256,334.231927 434.607932,307.715295 415.992202,282.264657 C415.678675,281.849231 415.122161,281.590576 414.549979,281.17515 L414.549979,487.374702 C415.992202,487.178742 416.93279,487.163067 417.818507,486.935763 C447.807464,479.285679 468.077046,460.928611 476.448245,431.088579 L476.448245,431.088579 Z M387.351421,284.890456 C378.321809,298.72488 369.903583,311.610885 361.994836,323.720903 C370.656049,332.523204 379.011573,340.988457 387.351421,349.461555 L387.351421,284.890456 Z M385.101852,463.577923 C371.792591,448.912647 358.310882,434.388459 344.852695,419.848602 C338.009942,412.457173 331.151521,405.089265 323.893342,397.27458 C315.553494,445.800882 353.192536,483.581012 387.531698,486.935763 C387.531698,481.13549 387.72765,475.343063 387.429799,469.566311 C387.304387,467.512702 386.465704,465.082856 385.101852,463.577923 L385.101852,463.577923 Z M387.531698,426.28376 C369.276529,406.531496 351.828691,387.641435 334.083001,368.453515 C338.088328,361.626445 342.062295,354.846402 346.247891,347.737148 C347.658771,349.053967 348.709088,350.018069 349.712379,351.02136 C361.532384,362.825688 373.399422,374.590828 385.086176,386.528407 C386.402994,387.868738 387.382772,390.165334 387.429799,392.022983 C387.633597,403.035656 387.531698,414.048329 387.531698,426.28376 L387.531698,426.28376 Z" id="Shape" fill="#000000"></path>
        </g>
    </g>
</svg>