<?xml version="1.0" encoding="UTF-8"?>
<svg width="800px" height="800px" viewBox="0 0 800 800" version="1.1" xmlns="http://www.w3.org/2000/svg" xmlns:xlink="http://www.w3.org/1999/xlink">
    <title>mask-icon</title>
    <g id="mask-icon" stroke="none" stroke-width="1" fill="none" fill-rule="evenodd">
        <g id="Group" fill="#000000">
            <path d="M679.38695,396.653163 C679.175348,392.134293 679.099192,384.848264 678.481443,377.604536 C675.09652,337.247852 663.790895,299.252148 644.014515,263.828973 C636.626928,250.593946 622.004082,245.846598 609.513732,252.811068 C596.981072,259.792462 593.223819,274.601476 600.526779,287.895744 C626.599109,335.369221 635.949946,386.041443 625.955975,439.201584 C610.681534,520.380379 564.604338,578.15247 488.917567,611.493913 C451.793476,627.85153 412.604586,632.632726 372.366375,627.809221 C342.342153,624.212742 314.010384,614.946532 287.616487,600.061353 C281.929823,596.837221 275.9216,595.644033 269.557955,597.065699 C258.963159,599.443604 251.626351,607.575868 249.959274,618.526078 C248.520685,627.970004 253.911167,638.370161 263.355085,643.532165 C327.617757,678.616841 395.578449,688.560033 466.712503,671.102318 C592.2168,640.308025 679.437682,528.309551 679.38695,396.653163 L679.38695,396.653163 Z M414.974029,527.708726 C414.957105,524.789237 415.380223,523.528355 418.765138,522.961377 C447.477707,518.120948 471.646021,504.725138 489.26452,481.563835 C520.202672,440.894045 522.614425,396.822408 500.637847,351.574515 C486.353493,322.142656 468.701146,294.547109 449.373262,268.077047 C433.277979,246.015843 416.99652,224.090037 400.232709,201.351852 C398.193303,204.245955 396.881641,205.997649 395.696924,207.808586 C377.012173,236.055728 358.158186,264.192858 339.727299,292.600784 C327.093097,312.097905 314.47581,331.645814 302.90786,351.794532 C290.002854,374.245006 283.706911,398.684115 287.54033,424.68028 C293.793963,467.03407 316.650623,497.464487 355.729501,515.074524 C365.139571,519.314128 375.488965,521.438169 385.999134,524.738466 L385.999134,528.648041 C385.999134,544.667167 385.889122,560.660907 386.109146,576.680033 C386.142994,579.582598 387.065386,582.755959 388.529361,585.269262 C391.702722,590.786672 398.311769,593.029188 404.413089,591.336726 C410.582103,589.62734 414.880948,584.473806 414.940181,577.932454 C415.084041,561.185567 415.067118,544.438689 414.974029,527.708726 L414.974029,527.708726 Z M174.001715,360.595324 C185.696602,295.114078 219.918128,243.705641 275.490021,207.266994 C321.87186,176.828124 373.263381,165.734054 428.268297,172.14847 C460.128841,175.871885 489.907654,186.22127 517.528586,202.629658 C523.325262,206.065353 529.561971,206.970812 536.018705,205.481452 C546.385014,203.086623 553.315637,195.098219 555.033476,184.088767 C556.49746,174.788709 551.606252,165.006293 542.416198,159.598887 C498.606895,133.729649 451.150342,121.036206 396.263893,120.486161 C390.15412,120.875423 379.990903,121.391621 369.84461,122.246318 C364.487975,122.703282 359.173658,123.659522 353.876264,124.564981 C286.516388,136.014474 230.089806,167.553443 186.796701,220.121221 C124.040322,296.307266 106.235654,382.995019 131.986416,478.322771 C138.163893,501.145584 147.954771,522.555192 160.157402,542.822384 C165.175538,551.123901 172.757757,555.287348 182.362458,554.965781 C192.356429,554.644214 199.837097,549.668388 204.042862,540.562953 C208.011678,531.982186 206.573089,523.790689 201.859588,515.624569 C174.018639,467.313328 164.185452,415.447918 174.001715,360.595324 L174.001715,360.595324 Z M800,399.995769 C800,620.912445 620.912445,800 399.995769,800 C179.079093,800 0,620.912445 0,399.995769 C0,179.079093 179.079093,0 399.995769,0 C620.912445,0 800,179.079093 800,399.995769 L800,399.995769 Z M481.995406,433.024107 C489.298367,406.943315 484.813353,381.954153 471.612173,358.208957 C455.059926,328.455522 436.823678,299.827579 416.725724,272.350507 C416.387233,271.902004 415.786408,271.622755 415.168668,271.174252 L415.168668,493.791852 C416.725724,493.580289 417.741204,493.563365 418.697443,493.317963 C451.074186,485.058763 472.957674,465.240066 481.995406,433.024107 L481.995406,433.024107 Z M385.804503,275.185377 C376.055934,290.121328 366.967431,304.033344 358.428973,317.107588 C367.77981,326.610746 376.800619,335.750021 385.804503,344.897765 L385.804503,275.185377 Z M383.375819,468.100322 C369.006845,452.267365 354.451695,436.58673 339.921938,420.889179 C332.534351,412.909229 325.129847,404.954672 317.293757,396.517765 C308.289872,448.907835 348.925814,489.696099 385.999134,493.317963 C385.999134,487.05586 386.210689,480.802227 385.889122,474.565518 C385.753724,472.348396 384.848264,469.72508 383.375819,468.100322 L383.375819,468.100322 Z M385.999134,427.836718 C366.290449,406.511736 347.453377,386.117608 328.294738,365.401905 C332.618977,358.031249 336.909361,350.711365 341.428223,343.036058 C342.951439,344.457724 344.085386,345.49859 345.168561,346.581765 C357.929699,359.325979 370.741616,372.027885 383.358895,384.915959 C384.780561,386.36301 385.838351,388.842466 385.889122,390.848025 C386.109146,402.737551 385.999134,414.627076 385.999134,427.836718 L385.999134,427.836718 Z" id="Shape"></path>
        </g>
    </g>
</svg>